<svg xmlns="http://www.w3.org/2000/svg" width="16" height="16" viewBox="0 0 16 16" fill="none">
  <path d="M3.8863 15.9673C6.03265 15.9673 7.77261 14.2309 7.77261 12.089C7.77261 9.947 6.03265 8.2106 3.8863 8.2106C1.73995 8.2106 0 9.947 0 12.089C0 14.2309 1.73995 15.9673 3.8863 15.9673Z" fill="#BE1E2D"/>
  <path d="M12.1136 15.9673C14.26 15.9673 15.9999 14.2309 15.9999 12.089C15.9999 9.947 14.26 8.2106 12.1136 8.2106C9.96726 8.2106 8.22729 9.947 8.22729 12.089C8.22729 14.2309 9.96726 15.9673 12.1136 15.9673Z" fill="#BE1E2D"/>
  <path d="M3.8863 7.75672C6.03265 7.75672 7.77261 6.02032 7.77261 3.87836C7.77261 1.7364 6.03265 0 3.8863 0C1.73995 0 0 1.7364 0 3.87836C0 6.02032 1.73995 7.75672 3.8863 7.75672Z" fill="#BE1E2D"/>
  <path d="M12.1136 7.75672C14.26 7.75672 15.9999 6.02032 15.9999 3.87836C15.9999 1.7364 14.26 0 12.1136 0C9.96726 0 8.22729 1.7364 8.22729 3.87836C8.22729 6.02032 9.96726 7.75672 12.1136 7.75672Z" fill="#BE1E2D"/>
</svg>