<svg xmlns="http://www.w3.org/2000/svg" width="16" height="16" viewBox="0 0 16 16" fill="none">
    <mask id="mask0_6_15" style="mask-type:alpha" maskUnits="userSpaceOnUse" x="0" y="0" width="16" height="16">
        <rect width="16" height="16" fill="#D9D9D9"/>
    </mask>
    <g>
        <path d="M12.9898 13.4359L8.81538 9.26155C8.48205 9.54531 8.09872 9.76496 7.66539 9.92052C7.23205 10.0761 6.79658 10.1539 6.35897 10.1539C5.29119 10.1539 4.3875 9.78425 3.64789 9.04504C2.90826 8.30582 2.53845 7.40262 2.53845 6.33542C2.53845 5.26822 2.90806 4.36432 3.64727 3.62372C4.38648 2.88312 5.28969 2.51282 6.35688 2.51282C7.4241 2.51282 8.328 2.88262 9.06859 3.62223C9.80919 4.36185 10.1795 5.26555 10.1795 6.33333C10.1795 6.79658 10.0974 7.24487 9.93334 7.6782C9.76924 8.11154 9.55385 8.48205 9.28719 8.78975L13.4616 12.9641L12.9898 13.4359ZM6.35897 9.48718C7.24359 9.48718 7.99039 9.1827 8.59935 8.57372C9.20833 7.96474 9.51282 7.21795 9.51282 6.33333C9.51282 5.44872 9.20833 4.70193 8.59935 4.09295C7.99039 3.48397 7.24359 3.17948 6.35897 3.17948C5.47436 3.17948 4.72756 3.48397 4.11859 4.09295C3.50962 4.70193 3.20514 5.44872 3.20514 6.33333C3.20514 7.21795 3.50962 7.96474 4.11859 8.57372C4.72756 9.1827 5.47436 9.48718 6.35897 9.48718Z" fill="#231F20"/>
    </g>
</svg>